<svg xmlns="http://www.w3.org/2000/svg" viewBox="0 0 800 440" width="800" height="440">
  <defs>
    <linearGradient id="g" x1="0%" y1="0%" x2="100%" y2="100%">
      <stop offset="0%" stop-color="#F5F3FF"/>
      <stop offset="100%" stop-color="#EDE9FE"/>
    </linearGradient>
  </defs>
  <rect width="800" height="440" fill="url(#g)"/>
  <line x1="0" y1="88" x2="800" y2="88" stroke="#C4B5FD" stroke-width="1" opacity="0.5"/>
  <line x1="0" y1="176" x2="800" y2="176" stroke="#C4B5FD" stroke-width="1" opacity="0.5"/>
  <line x1="0" y1="264" x2="800" y2="264" stroke="#C4B5FD" stroke-width="1" opacity="0.5"/>
  <line x1="0" y1="352" x2="800" y2="352" stroke="#C4B5FD" stroke-width="1" opacity="0.5"/>
  <!-- CRM pipeline stages -->
  <rect x="160" y="165" width="80" height="110" rx="10" fill="#8B5CF6" opacity="0.15" stroke="#8B5CF6" stroke-width="2"/>
  <text x="200" y="200" font-family="Inter,sans-serif" font-size="11" fill="#7C3AED" text-anchor="middle" font-weight="600">Inquiry</text>
  <rect x="200" y="215" width="56" height="28" rx="6" fill="#8B5CF6" opacity="0.6"/>
  <rect x="200" y="250" width="56" height="20" rx="6" fill="#8B5CF6" opacity="0.4"/>
  <rect x="200" y="277" width="56" height="20" rx="6" fill="#8B5CF6" opacity="0.3"/>

  <rect x="260" y="145" width="80" height="130" rx="10" fill="#6D28D9" opacity="0.15" stroke="#6D28D9" stroke-width="2"/>
  <text x="300" y="180" font-family="Inter,sans-serif" font-size="11" fill="#6D28D9" text-anchor="middle" font-weight="600">Pipeline</text>
  <rect x="268" y="195" width="56" height="28" rx="6" fill="#6D28D9" opacity="0.6"/>
  <rect x="268" y="230" width="56" height="20" rx="6" fill="#6D28D9" opacity="0.4"/>
  <rect x="268" y="257" width="56" height="20" rx="6" fill="#6D28D9" opacity="0.5"/>
  <rect x="268" y="284" width="56" height="20" rx="6" fill="#6D28D9" opacity="0.3"/>

  <rect x="360" y="165" width="80" height="110" rx="10" fill="#7C3AED" opacity="0.15" stroke="#7C3AED" stroke-width="2"/>
  <text x="400" y="200" font-family="Inter,sans-serif" font-size="11" fill="#7C3AED" text-anchor="middle" font-weight="600">Enrolled</text>
  <rect x="368" y="215" width="56" height="28" rx="6" fill="#7C3AED" opacity="0.7"/>
  <rect x="368" y="250" width="56" height="20" rx="6" fill="#7C3AED" opacity="0.5"/>

  <!-- Pie chart -->
  <circle cx="560" cy="215" r="70" fill="none" stroke="#8B5CF6" stroke-width="28" stroke-dasharray="131 88 87" stroke-dashoffset="0" opacity="0.6" transform="rotate(-90 560 215)"/>
  <circle cx="560" cy="215" r="46" fill="white" opacity="0.8"/>
  <text x="560" y="220" font-family="Inter,sans-serif" font-size="14" fill="#7C3AED" text-anchor="middle" font-weight="700">45%↑</text>

  <text x="400" y="370" font-family="Inter,sans-serif" font-size="22" font-weight="700" fill="#6D28D9" text-anchor="middle">Education CRM Platform</text>
  <text x="400" y="398" font-family="Inter,sans-serif" font-size="13" fill="#A78BFA" text-anchor="middle">EdTech / Lead Management</text>
</svg>
