<svg xmlns="http://www.w3.org/2000/svg" viewBox="0 0 800 440" width="800" height="440">
  <defs>
    <linearGradient id="g" x1="0%" y1="0%" x2="100%" y2="100%">
      <stop offset="0%" stop-color="#FEF2F2"/>
      <stop offset="100%" stop-color="#FEE2E2"/>
    </linearGradient>
  </defs>
  <rect width="800" height="440" fill="url(#g)"/>
  <line x1="0" y1="88" x2="800" y2="88" stroke="#FCA5A5" stroke-width="1" opacity="0.5"/>
  <line x1="0" y1="176" x2="800" y2="176" stroke="#FCA5A5" stroke-width="1" opacity="0.5"/>
  <line x1="0" y1="264" x2="800" y2="264" stroke="#FCA5A5" stroke-width="1" opacity="0.5"/>
  <line x1="0" y1="352" x2="800" y2="352" stroke="#FCA5A5" stroke-width="1" opacity="0.5"/>
  <!-- Hospital cross / dashboard -->
  <rect x="200" y="145" width="140" height="32" rx="6" fill="#EF4444" opacity="0.8"/>
  <rect x="216" y="129" width="108" height="64" rx="6" fill="#EF4444" opacity="0.8"/>
  <!-- Bar chart (analytics) -->
  <rect x="440" y="210" width="32" height="70" rx="4" fill="#EF4444" opacity="0.7"/>
  <rect x="484" y="180" width="32" height="100" rx="4" fill="#EF4444" opacity="0.5"/>
  <rect x="528" y="150" width="32" height="130" rx="4" fill="#EF4444" opacity="0.8"/>
  <rect x="572" y="195" width="32" height="85" rx="4" fill="#EF4444" opacity="0.4"/>
  <line x1="420" y1="280" x2="620" y2="280" stroke="#FCA5A5" stroke-width="2"/>
  <text x="400" y="370" font-family="Inter,sans-serif" font-size="22" font-weight="700" fill="#DC2626" text-anchor="middle">Hospital Management Dashboard</text>
  <text x="400" y="398" font-family="Inter,sans-serif" font-size="13" fill="#F87171" text-anchor="middle">Healthcare / Enterprise Dashboard</text>
</svg>
